<svg width="122" height="36" viewBox="0 0 122 36" fill="none" xmlns="http://www.w3.org/2000/svg">
<mask id="mask0_0_1" style="mask-type:luminance" maskUnits="userSpaceOnUse" x="0" y="0" width="37" height="36">
<path d="M0.0203094 0H37V35.94H0.0203094V0Z" fill="white"/>
</mask>
<g mask="url(#mask0_0_1)">
<path fill-rule="evenodd" clip-rule="evenodd" d="M32.2608 11.1034C31.5253 9.61517 30.5381 8.21983 29.2992 6.98091C23.2012 0.882503 13.3144 0.882503 7.21639 6.98091C1.11838 13.0793 1.11838 22.9668 7.21639 29.0652C13.3144 35.1635 23.2012 35.1635 29.2992 29.0652C33.5812 24.7829 34.8564 18.6322 33.1248 13.2371L22.5602 23.7869C22.1463 24.2002 21.4759 24.2002 21.0621 23.7869L14.0766 16.8113C13.6624 16.3975 13.6619 15.7262 14.0756 15.3119C14.4893 14.8975 15.1605 14.8971 15.5749 15.3108L21.8112 21.5384L32.2608 11.1034Z" fill="url(#paint0_linear_0_1)"/>
</g>
<path d="M40.576 13.44V10.152H53.608V13.44H49.144V27H45.04V13.44H40.576ZM54.8517 20.28C54.8517 16.056 57.4677 13.416 60.7557 13.416C62.7477 13.416 64.1637 14.328 64.8837 15.504V13.608H68.9877V27H64.8837V25.104C64.1397 26.28 62.7237 27.192 60.7317 27.192C57.4677 27.192 54.8517 24.504 54.8517 20.28ZM64.8837 20.304C64.8837 18.168 63.5157 16.992 61.9557 16.992C60.4197 16.992 59.0277 18.144 59.0277 20.28C59.0277 22.416 60.4197 23.616 61.9557 23.616C63.5157 23.616 64.8837 22.44 64.8837 20.304ZM82.8288 23.112C82.8288 25.44 80.7648 27.192 77.4048 27.192C73.8288 27.192 71.4288 25.2 71.2368 22.608H75.2928C75.3888 23.544 76.2288 24.168 77.3568 24.168C78.4128 24.168 78.9648 23.688 78.9648 23.088C78.9648 20.928 71.6688 22.488 71.6688 17.568C71.6688 15.288 73.6128 13.416 77.1168 13.416C80.5728 13.416 82.4928 15.336 82.7568 17.976H78.9648C78.8448 17.064 78.1488 16.464 76.9968 16.464C76.0368 16.464 75.5088 16.848 75.5088 17.496C75.5088 19.632 82.7568 18.12 82.8288 23.112ZM85.3396 27V9.24H89.4436V19.056L93.4996 13.608H98.5636L92.9956 20.328L98.6116 27H93.5236L89.4436 21.384V27H85.3396ZM104.52 24.984C104.52 26.208 103.536 27.192 102.096 27.192C100.632 27.192 99.6475 26.208 99.6475 24.984C99.6475 23.712 100.632 22.728 102.096 22.728C103.536 22.728 104.52 23.712 104.52 24.984ZM106.949 27V13.608H111.053V27H106.949ZM109.013 12.216C107.549 12.216 106.565 11.232 106.565 10.008C106.565 8.76 107.549 7.776 109.013 7.776C110.453 7.776 111.437 8.76 111.437 10.008C111.437 11.232 110.453 12.216 109.013 12.216ZM114.675 22.344V17.016H113.043V13.608H114.675V10.344H118.779V13.608H121.467V17.016H118.779V22.392C118.779 23.184 119.115 23.52 120.027 23.52H121.491V27H119.403C116.619 27 114.675 25.824 114.675 22.344Z" fill="#111827"/>
<defs>
<linearGradient id="paint0_linear_0_1" x1="-3.82503" y1="18.023" x2="40.3406" y2="18.023" gradientUnits="userSpaceOnUse">
<stop stop-color="#7A65FD"/>
<stop offset="1" stop-color="#1D6FA3"/>
</linearGradient>
</defs>
</svg>
